<svg width="460" height="304" viewBox="0 0 460 304" fill="none" xmlns="http://www.w3.org/2000/svg">
<path d="M88.2271 242.077C59.7085 240.04 60.8904 216.116 59.4005 193.392C56.1391 143.649 57.9803 99.2716 60.0698 49.9613C60.6061 37.3049 63.5591 26.4686 77.5659 21.9696C82.5822 20.3588 87.9195 20.4549 93.132 20.1926L108.924 19.5278L255.906 16.4068C271.017 16.316 364.92 15.9297 376.204 21.8231C381.83 24.7608 385.499 29.9948 387.389 35.9412C389.244 48.85 390.097 62.058 391.136 75.0593C394.619 118.683 395.887 162.604 392.65 206.279C391.592 220.553 388.339 233.366 370.984 235.623C360.383 237.002 346.326 237.411 335.529 237.897C330.688 238.114 325.604 238.022 320.809 238.708C301.38 239.085 281.986 240.981 262.543 240.981V243.645L262.56 243.89C263.935 260.66 297.166 285.981 260.514 287.744C242.361 288.619 223.099 289.452 204.943 289.537C173.18 289.684 182.307 279.408 188.479 258.208C189.762 253.802 190.542 249.476 191.406 244.985C191.544 244.288 191.686 243.964 191.453 243.282C190.391 242.678 172.487 242.996 169.734 242.969L98.5523 242.112C95.1247 242.059 91.6505 241.895 88.2271 242.077ZM383.245 203.718C383.458 201.486 383.992 199.397 384.302 197.196C357.645 201.993 320.064 202.393 292.866 203.38L209.003 206.266C199.263 206.519 189.59 206.635 179.84 206.635L139.753 206.632C125.187 206.63 110.636 206.625 96.0726 206.306L80.0729 205.947C76.6849 205.873 73.2262 205.642 69.8524 205.994C70.7578 215.809 70.7556 225.505 80.2191 230.96C85.8139 234.095 97.9935 232.784 104.333 232.834L136.801 233.206C208.001 234.116 278.974 232.04 350.035 227.487L363.29 226.633C381.099 225.494 381.966 220.862 383.245 203.718ZM252.63 243.645V242.077C242.126 241.136 226.855 242.348 216.133 242.651L206.898 242.857C203.589 242.917 201.421 241.771 201.029 244.985C199.404 253.486 197.402 262.045 194.408 270.174C193.72 272.044 191.214 277.522 191.657 279.237C194.933 282.634 247.243 278.957 254.164 278.892C276.042 278.687 269.204 277.881 261.667 265.774C257.428 258.964 254.349 251.478 252.63 243.645ZM258.307 26.1686C249.489 26.1632 240.613 25.9763 231.8 26.1848L130.169 28.7002C118.958 29.091 107.731 29.3497 96.5272 29.887C67.7317 31.2678 70.8787 35.5908 69.4146 59.1751L67.5963 91.3344C66.5037 114.802 66.5347 138.442 67.2071 161.923C67.5311 173.236 68.7075 184.531 69.0252 195.838C77.6402 197.129 87.2673 196.366 96.0169 196.648C102.677 196.863 109.249 197.054 115.908 197.081L193.052 197.196C196.689 197.217 200.299 196.918 203.932 196.827L231.791 196.05C276.075 194.821 320.45 193.421 364.624 189.917C370.015 189.49 378.726 189.052 383.754 187.853L383.906 187.696L383.761 187.525L383.962 187.438L383.994 187.23L383.736 187.17L383.715 186.842L384.054 186.7C386.583 140.493 383.744 94.0187 379.283 48.0208C377.697 31.6685 376.261 29.8124 358.469 28.375C325.903 25.7445 291.175 25.6987 258.307 26.1686Z" fill="#253017"/>
<path d="M387.389 35.9414C390.588 37.1946 393.308 39.8988 394.67 43.0485C396.54 47.3697 398.356 77.779 398.943 86.6109L400.393 111.788C401.019 123.257 401.18 134.734 401.418 146.212C401.785 163.873 403.211 217.446 398.32 229.646C392.52 244.113 380.892 243.665 368.336 243.657L348.824 243.644C332.913 243.636 316.944 243.964 301.04 243.645H262.543V240.981C281.986 240.981 301.38 239.085 320.809 238.708C325.605 238.022 330.688 238.115 335.529 237.897C346.326 237.411 360.383 237.002 370.984 235.623C388.339 233.366 391.592 220.553 392.65 206.28C395.887 162.604 394.619 118.683 391.136 75.0596C390.097 62.0582 389.244 48.8502 387.389 35.9414Z" fill="#508826"/>
<path d="M368.756 52.6328C368.749 50.3404 368.803 47.8356 368.026 45.6502C364.292 35.1354 348.757 41.716 345.093 39.7805C344.137 39.2761 343.765 38.3037 344.459 37.4062C345.547 35.9996 351.308 36.2828 353.124 36.0663C362.051 35.4174 370.126 36.9445 372.05 47.0714C372.32 48.4897 373.195 56.3962 372.705 57.2563C370.589 60.9682 368.876 54.6023 368.756 52.6328Z" fill="#253017"/>
<path d="M92.6836 189.673C88.0319 190.29 81.8742 191.342 77.6127 189.034C72.4657 186.245 73.5277 179.288 73.4766 174.454C73.4551 172.41 72.3063 169.456 75.0785 168.895C78.5619 169.141 75.8745 179.982 77.462 183.865C79.9896 190.049 90.128 185.21 93.1199 186.524C95.0626 187.378 94.5 189.269 92.6836 189.673Z" fill="#253017"/>
<path d="M80.2192 230.96C79.316 226.498 74.728 216.122 78.9301 212.324C80.1643 211.208 115.671 212.045 119.973 212.046L217.967 212.048C234.588 212.045 249.685 211.632 266.226 210.97L334.284 208.187C346.736 207.486 359.141 206.144 371.523 204.7C375.449 204.242 379.276 203.531 383.245 203.718C381.966 220.862 381.099 225.494 363.29 226.633L350.035 227.488C278.974 232.041 208.001 234.116 136.802 233.206L104.333 232.834C97.9935 232.785 85.814 234.095 80.2192 230.96Z" fill="#ABD27A"/>
<path d="M252.63 243.646C240.801 245.456 212.858 245.458 201.029 244.986C201.421 241.772 203.59 242.918 206.898 242.858L216.133 242.652C226.856 242.35 242.126 241.137 252.63 242.078V243.646Z" fill="#ABD27A"/>
<path d="M88.227 242.076C91.6504 241.894 95.1247 242.058 98.5522 242.111L169.734 242.968C172.487 242.995 190.391 242.677 191.452 243.281C191.686 243.963 191.544 244.287 191.406 244.984C168.952 245.711 146.285 245.811 123.821 245.508C114.071 245.376 96.8649 247.362 88.227 242.076Z" fill="#ABD27A"/>
<path d="M221.524 169.337C221.47 170.973 222.241 174.354 221.259 175.618C220.631 176.425 219.532 176.501 218.77 175.825C217.545 174.738 217.87 164.527 217.869 162.743C217.869 159.131 216.849 156.443 221.524 156.217C224.796 154.781 231.041 157.984 230.114 162.783C229.596 165.462 227.402 166.802 225.3 168.213C226.878 169.327 230.761 172.399 231.307 174.304C230.603 176.936 228.832 175.865 227.304 174.669C225.477 172.817 223.534 170.99 221.524 169.337ZM222.396 159.908H221.524C221.511 163.307 220.226 167.267 224.729 164.478C228.637 162.084 226.68 158.99 222.396 159.908Z" fill="#253017"/>
<path d="M192.725 173.862C194.785 173.917 197.719 173.531 199.447 173.681C200.571 173.779 201.095 175.547 200.369 176.332C198.995 177.819 191.313 177.663 189.712 176.245C187.473 174.26 187.968 165.438 187.789 162.107C187.602 158.646 189.131 156.373 192.725 156.215C194.856 155.881 202.964 156.591 198.633 159.906C191.886 159.945 190.475 157.149 191.6 165.387C192.868 165.283 197.087 165.067 198.041 165.78C199.04 166.528 198.655 168.249 197.497 168.627C196.199 169.05 193.12 168.725 191.6 168.778C191.588 170.132 191.005 173.75 192.725 173.862Z" fill="#253017"/>
<path d="M206.555 169.88C206.592 171.092 207.303 175.784 205.684 176.228C204.519 176.548 203.436 176.164 203.206 174.892C202.888 173.13 202.478 158.803 203.307 157.676C204.033 156.687 205.612 156.413 206.75 156.215C211.325 155.63 217.04 158.543 215.188 163.827C214.353 166.212 212.272 167.199 210.148 168.211C211.54 170.653 214.689 171.958 215.627 174.668C214.939 177.018 213.344 176.629 211.899 175.224C210.122 173.441 208.362 171.635 206.555 169.88ZM207.233 159.906C205.905 160.202 206.549 164.132 206.555 165.618C207.877 165.423 208.976 165.124 210.148 164.476C214.266 161.484 210.71 159.924 207.233 159.906Z" fill="#253017"/>
<path d="M241.415 175.706C236.14 175.876 231.728 171.736 231.561 166.461C231.395 161.187 235.538 156.777 240.813 156.614C246.084 156.451 250.488 160.589 250.654 165.859C250.821 171.129 246.685 175.536 241.415 175.706ZM240.685 160.337C232.468 161.617 234.223 173.601 241.822 172.002C248.921 170.6 248.438 159.002 240.685 160.337Z" fill="#253017"/>
<path d="M253.453 175.775C252.867 175.49 252.354 175.117 252.115 174.488C251.852 173.793 252.459 158.431 252.711 158.012C253.256 157.109 254.634 156.972 255.565 156.82C263.135 156.241 267.36 162.34 259.229 167.631C260.378 168.99 262.911 171.223 263.696 172.542C264.374 173.681 263.285 176.876 260.139 173.86C259.009 172.583 257.549 170.925 256.228 169.867L255.565 169.335C255.664 172.008 256.396 174.725 253.453 175.775ZM255.937 160.335C255.941 162.012 255.855 163.713 255.937 165.385C256.815 164.862 257.737 164.366 258.572 163.777C261.926 161.259 258.468 160.178 255.937 160.335Z" fill="#253017"/>
<path d="M174.488 123.832C174.305 120.209 174.726 116.538 174.429 112.938C172.703 111.741 150.019 117.473 142.478 113.402C134.089 108.874 142.287 99.8137 145.363 94.6801L161.095 68.6441C164.66 62.7555 168.966 54.4007 176.12 52.6383C185.26 51.5643 183.58 61.09 183.499 66.9817C183.361 76.9489 181.903 92.9184 183.493 102.484C185.932 102.481 195.062 102.132 193.085 106.937C192.269 108.921 185.591 110.242 183.493 110.951C183.722 117.2 186.52 137.225 181.17 141.681C179.166 143.351 176.635 141.797 175.398 139.951C172.846 136.143 173.601 128.201 174.488 123.832ZM175.174 60.3727C170.588 63.9453 167.819 70.6709 165.091 75.6424C164.085 77.4768 147.813 106.723 147.812 106.729C147.758 107.063 148.099 107.132 148.385 107.199C157.335 106.881 166.395 105.497 175.174 103.73C174.397 96.7281 176.699 63.3 175.424 60.5007L175.088 60.4378L175.244 60.4106L175.174 60.3727Z" fill="#253017"/>
<path d="M295.034 111.803C286.192 113.057 273.223 117.835 265.374 113.623C254.048 107.544 270.062 89.3088 274.423 82.6332C278.837 75.8758 290.68 54.703 298.466 52.6406C300.195 52.7451 302.191 53.2367 303.531 54.3849C309.408 59.42 303.779 91.6885 304.428 102.487C306.577 101.8 311.166 101.291 312.331 103.915C314.697 109.246 307.291 109.501 304.114 110.813L303.78 110.953C303.687 116.709 304.252 137.32 300.991 140.386C298.004 143.193 294.432 139.846 293.815 136.747C293.055 132.929 293.81 125.87 294.191 121.811C294.316 118.475 294.735 115.129 295.034 111.803ZM297.29 60.3751C291.066 65.7684 268.339 105.11 270.045 107.167L270.331 107.201C276.829 107.902 288.755 104.63 295.994 103.733C296.591 98.0317 298.685 61.9664 297.29 60.3751Z" fill="#253017"/>
<path d="M230.46 138.62C215.572 142.965 205.488 132.018 202.9 118.241C200.468 105.289 202.96 72.267 210.441 61.45C213.448 57.1011 217.88 55.041 222.964 54.1443C234.933 52.8771 244.925 60.0701 248.804 71.2953C253.244 84.1421 252.749 112.399 246.777 124.62C243.515 131.296 237.427 136.232 230.46 138.62ZM225.399 61.9681C212.119 63.7487 211.129 97.5926 211.047 107.386C210.954 118.378 213.573 135.08 228.425 130.088C246.762 123.007 244.835 84.7488 239.468 71.0014C237.366 65.6172 231.407 61.1062 225.399 61.9681Z" fill="#253017"/>
</svg>
